# xmcd CD database file
# Copyright (C) 1996 Ti Kan
#
# Track frame offsets:
#  182
#  12532
#  26175
#  39552
#  53015
#  65640
#  80705
#  95475
#  108677
#  122632
#  136037
#  148372
#
# Disc length: 2151 seconds
#
# Revision: 2
# Processed by: cddbd v1.4b41PL1 Copyright (c) Steve Scherf et al.
# Submitted via: CDWizzard Release:4.12
#
DISCID=b108650c
DTITLE=John Lee Hooker - House Of The Blues
DYEAR=1900
DGENRE=
TTITLE0=Walkin' The Boogie
TTITLE1=Love Blues
TTITLE2=Union Station Blues
TTITLE3=It's My Own Fault
TTITLE4=Leave My Wife Alone
TTITLE5=Ramblin' By Myself
TTITLE6=Sugar Mama
TTITLE7=Down At The Landing
TTITLE8=Louise
TTITLE9=Ground Hog Blues
TTITLE10=High Priced Woman
TTITLE11=Women And Money
EXTD=CHD-9258
EXTT0=
EXTT1=
EXTT2=
EXTT3=
EXTT4=
EXTT5=
EXTT6=
EXTT7=
EXTT8=
EXTT9=
EXTT10=
EXTT11=
PLAYORDER=
